<svg xmlns="http://www.w3.org/2000/svg" width="805" height="600"><rect width="805" height="600" x="0" y="0" fill="#FFFFFF" id="background"/><g id="viz"><g transform="translate(0,0)"><g transform="translate(50,20)"><g class="bars"><rect id="undefined - cn" x="0" y="19.310344827586164" height="88.82758620689657" width="447" fill="#1f77b4"/><rect id="undefined - en" x="0" y="127.44827586206894" height="88.82758620689657" width="558.75" fill="#ff7f0e"/><rect id="undefined - es" x="0" y="451.86206896551727" height="88.82758620689657" width="745" fill="#2ca02c"/><rect id="undefined - nl" x="0" y="235.58620689655172" height="88.82758620689657" width="596" fill="#9467bd"/><rect id="undefined - hi" x="0" y="343.7241379310345" height="88.82758620689657" width="596" fill="#d62728"/></g><g id="xAxis" transform="translate(0,560)" fill="none" font-size="10" font-family="sans-serif" text-anchor="middle"><path class="domain" stroke="currentColor" d="M0,6V0H745V6"/><g class="tick" opacity="1" transform="translate(0,0)"><line stroke="currentColor" y2="6"/><text fill="currentColor" y="9" dy="0.71em">0.0</text></g><g class="tick" opacity="1" transform="translate(74.5,0)"><line stroke="currentColor" y2="6"/><text fill="currentColor" y="9" dy="0.71em">0.5</text></g><g class="tick" opacity="1" transform="translate(149,0)"><line stroke="currentColor" y2="6"/><text fill="currentColor" y="9" dy="0.71em">1.0</text></g><g class="tick" opacity="1" transform="translate(223.5,0)"><line stroke="currentColor" y2="6"/><text fill="currentColor" y="9" dy="0.71em">1.5</text></g><g class="tick" opacity="1" transform="translate(298,0)"><line stroke="currentColor" y2="6"/><text fill="currentColor" y="9" dy="0.71em">2.0</text></g><g class="tick" opacity="1" transform="translate(372.5,0)"><line stroke="currentColor" y2="6"/><text fill="currentColor" y="9" dy="0.71em">2.5</text></g><g class="tick" opacity="1" transform="translate(447,0)"><line stroke="currentColor" y2="6"/><text fill="currentColor" y="9" dy="0.71em">3.0</text></g><g class="tick" opacity="1" transform="translate(521.5,0)"><line stroke="currentColor" y2="6"/><text fill="currentColor" y="9" dy="0.71em">3.5</text></g><g class="tick" opacity="1" transform="translate(596,0)"><line stroke="currentColor" y2="6"/><text fill="currentColor" y="9" dy="0.71em">4.0</text></g><g class="tick" opacity="1" transform="translate(670.5,0)"><line stroke="currentColor" y2="6"/><text fill="currentColor" y="9" dy="0.71em">4.5</text></g><g class="tick" opacity="1" transform="translate(745,0)"><line stroke="currentColor" y2="6"/><text fill="currentColor" y="9" dy="0.71em">5.0</text></g><text font-family="Arial, sans-serif" font-size="10" x="745" dy="-5" fill="black" font-weight="bold" text-anchor="end">Adolfo Rating [mean]</text></g><g id="yAxis" transform="translate(0,0)" fill="none" font-size="10" font-family="sans-serif" text-anchor="end"><path class="domain" stroke="currentColor" d="M0,0V560"/><g class="tick" opacity="1" transform="translate(0,63.72413793103445)"><line stroke="currentColor" x2="-6"/><text fill="currentColor" x="-9" dy="0.32em">cn</text></g><g class="tick" opacity="1" transform="translate(0,171.8620689655172)"><line stroke="currentColor" x2="-6"/><text fill="currentColor" x="-9" dy="0.32em">en</text></g><g class="tick" opacity="1" transform="translate(0,280)"><line stroke="currentColor" x2="-6"/><text fill="currentColor" x="-9" dy="0.32em">nl</text></g><g class="tick" opacity="1" transform="translate(0,388.1379310344828)"><line stroke="currentColor" x2="-6"/><text fill="currentColor" x="-9" dy="0.32em">hi</text></g><g class="tick" opacity="1" transform="translate(0,496.2758620689656)"><line stroke="currentColor" x2="-6"/><text fill="currentColor" x="-9" dy="0.32em">es</text></g><text font-family="Arial, sans-serif" font-size="10" x="4" fill="black" font-weight="bold" text-anchor="start" dominant-baseline="hanging">Original Language</text></g></g><text y="4" x="4" style="font-family: Arial, sans-serif; font-size: 12px; fill: black; font-weight: bold; dominant-baseline: hanging;"/></g></g></svg>